<?xml version="1.0" encoding="utf-8"?>
<!-- Generator: Adobe Illustrator 19.0.0, SVG Export Plug-In . SVG Version: 6.00 Build 0)  -->
<svg version="1.1" id="Layer_1" xmlns="http://www.w3.org/2000/svg" xmlns:xlink="http://www.w3.org/1999/xlink" x="0px" y="0px"
	 viewBox="0 0 1920 1080" style="enable-background:new 0 0 1920 1080;" xml:space="preserve">
<style type="text/css">
	.st0{opacity:0.7;fill:#A1DDF9;}
	.st1{fill:#F280B2;}
	.st2{fill:#EDEDEE;}
	.st3{fill:#842B90;}
	.st4{fill:#A1DDF9;}
	.st5{fill:none;stroke:#8E8E8E;stroke-width:8.9697;stroke-miterlimit:10;}
	.st6{opacity:0.3;fill:#7D7E81;}
	.st7{fill:#E4E5E6;}
	.st8{fill:none;stroke:#8E8E8E;stroke-width:6.93;stroke-miterlimit:10;}
</style>
<rect id="XMLID_74_" x="1054.5" y="419.4" class="st0" width="159" height="331.9"/>
<circle id="XMLID_75_" class="st1" cx="1138.8" cy="713.1" r="26"/>
<path id="XMLID_12_" class="st2" d="M1104.8,736.4H921v-47h183.9c12.9,0,23.6,10.5,23.6,23.6l0,0
	C1128.3,725.9,1117.8,736.4,1104.8,736.4z"/>
<path id="XMLID_13_" class="st2" d="M1003.5,790.5H921v-47h82.5c12.9,0,23.6,10.5,23.6,23.6l0,0
	C1027.1,779.9,1016.6,790.5,1003.5,790.5z"/>
<path id="XMLID_14_" class="st2" d="M1003.5,844.5H921v-47h82.5c12.9,0,23.6,10.5,23.6,23.6l0,0
	C1027.1,834,1016.6,844.5,1003.5,844.5z"/>
<path id="XMLID_16_" class="st2" d="M1003.5,898.7H921v-47h82.5c12.9,0,23.6,10.5,23.6,23.6l0,0
	C1027.1,888.1,1016.6,898.7,1003.5,898.7z"/>
<path id="XMLID_20_" class="st3" d="M1100.7,696.4c-9,0-16.1,7.3-16.1,16.1c0,9,7.3,16.1,16.1,16.1h30.2v-32.4h-30.2V696.4z"/>
<rect id="XMLID_71_" x="1203.1" y="444.7" class="st3" width="23.3" height="328.2"/>
<circle id="XMLID_72_" class="st4" cx="1224.6" cy="713.8" r="32"/>
<g id="XMLID_76_">
	<polyline id="XMLID_109_" class="st5" points="1266.7,459 1241.1,497.8 1266.7,536.6 1241.1,575.4 1266.7,614.3 1241.1,653.1 
		1266.7,691.9 	"/>
</g>
<g id="XMLID_77_">
	<polyline id="XMLID_85_" class="st5" points="1162.8,692.4 1188.4,653.7 1162.8,614.9 1188.4,576.1 1162.8,537.3 1188.4,498.4 
		1162.8,459.6 	"/>
</g>
<path id="XMLID_94_" class="st6" d="M848.1,689.4c-57.8,0-104.7,46.9-104.7,104.7v430.3h72.9V898.6c0.4,0,0.6,0,1,0H921V689.4H848.1
	z"/>
<rect id="XMLID_92_" x="1720.8" y="251.8" class="st6" width="276.2" height="58.6"/>
<circle id="XMLID_18_" class="st4" cx="1573.8" cy="251.2" r="94.1"/>
<g id="XMLID_91_">
	<path id="XMLID_113_" class="st7" d="M1670.5,403.9h-30.8v-12.1c0-15.1,12.3-27.5,27.5-27.5h3.4c14.2,0,25.6-11.5,25.6-25.6V153.1
		c0-14.2-11.5-25.6-25.6-25.6h-49.5c-14.1,0-25.4-11.4-25.4-25.4V87.9h74.9c36,0,65.2,29.2,65.2,65.2v185.5
		C1735.7,374.7,1706.5,403.9,1670.5,403.9z"/>
</g>
<polygon id="XMLID_93_" class="st1" points="1645.4,165.1 1629.9,259.9 1614.2,354.5 1540.1,293.7 1465.8,232.8 1555.6,199 "/>
<g id="XMLID_114_">
	<path id="XMLID_111_" class="st8" d="M1599.5,413.6c-8.5,1.4-19.5-29.4-27.9-29.4c-8.6-0.1-20.1,30.5-28.3,29
		c-8.4-1.6-8.2-34.3-16.1-37.2c-8-3-29.3,21.8-36.5,17.5c-7.3-4.4,4.1-34.9-2.4-40.5c-6.4-5.5-34.9,10.6-40.4,4
		c-5.3-6.5,15.7-31.4,11.6-38.9c-4.2-7.3-36.4-2-39.3-10.1c-2.8-7.9,25.6-24.1,24.2-32.6c-1.4-8.5-33.6-14.6-33.5-22.9
		c0.1-8.6,32.3-14.1,33.9-22.4c1.6-8.4-26.5-25-23.6-33c3-8,35.1-2.1,39.4-9.4c4.4-7.3-16.4-32.6-10.9-39
		c5.5-6.4,33.7,10.1,40.3,4.7c6.5-5.3-4.4-36.2,3.1-40.4c7.3-4.2,28.1,21,36.2,18.2c7.9-2.8,8.2-35.4,16.7-36.9"/>
</g>
</svg>
