<?xml version="1.0" encoding="utf-8"?>
<!-- Generator: Adobe Illustrator 19.0.0, SVG Export Plug-In . SVG Version: 6.00 Build 0)  -->
<svg version="1.1" id="Layer_1" xmlns="http://www.w3.org/2000/svg" xmlns:xlink="http://www.w3.org/1999/xlink" x="0px" y="0px"
	 viewBox="0 0 200 200" style="enable-background:new 0 0 200 200;" xml:space="preserve">
<style type="text/css">
	.outline{fill:none;stroke:#000000;stroke-width:4;stroke-linejoin:round;stroke-miterlimit:10;}
	.fill{fill:#FFFFFF;stroke:#000000;stroke-width:4;stroke-linejoin:round;stroke-miterlimit:10;}
</style>
<path id="XMLID_1_" class="outline buttonEl" d="M158.5,74.8l-26.1-25.9c-10.4-10.4-27.4-10.4-37.8,0l-43.8,44c-5.1,5.1-8,12.1-8,19.4v4.1l0,35.3
	c0,4,2.8,7.5,6.7,8.2c5,0.8,9.3-3.1,9.3-7.9v-35.5H59v35.5c0,4.4,3.6,8,8,8h0c4.4,0,8-3.6,8-8v-35.5h0.1v35.5c0,4.4,3.6,8,8,8h0
	c4.4,0,8-3.6,8-8v-35.5h0.1v35.5c0,4.4,3.6,8,8,8h0c4.4,0,8-3.6,8-8v-32.5v-9.5c0-2.5,1-4.8,2.7-6.6l12.7-12.7
	c3.6-3.6,9.5-3.6,13.2,0l3.2,3.2"/>
<path id="XMLID_2_" class="fill buttonEl" d="M54.7,159.9h-7.4c-1,0-1.9-0.8-1.9-1.9V151c0-3.1,2.5-5.6,5.6-5.6h0c3.1,0,5.6,2.5,5.6,5.6v7.1
	C56.6,159.1,55.8,159.9,54.7,159.9z"/>
<path id="XMLID_4_" class="fill buttonEl" d="M70.7,159.9h-7.4c-1,0-1.9-0.8-1.9-1.9V151c0-3.1,2.5-5.6,5.6-5.6h0c3.1,0,5.6,2.5,5.6,5.6v7.1
	C72.6,159.1,71.8,159.9,70.7,159.9z"/>
<path id="XMLID_7_" class="fill buttonEl" d="M86.9,159.9h-7.4c-1,0-1.9-0.8-1.9-1.9V151c0-3.1,2.5-5.6,5.6-5.6h0c3.1,0,5.6,2.5,5.6,5.6v7.1
	C88.7,159.1,87.9,159.9,86.9,159.9z"/>
<path id="XMLID_10_" class="fill buttonEl" d="M103,159.9h-7.4c-1,0-1.9-0.8-1.9-1.9V151c0-3.1,2.5-5.6,5.6-5.6h0c3.1,0,5.6,2.5,5.6,5.6v7.1
	C104.8,159.1,104,159.9,103,159.9z"/>
</svg>
