<?xml version="1.0" encoding="utf-8"?>
<!-- Generator: Adobe Illustrator 19.0.0, SVG Export Plug-In . SVG Version: 6.00 Build 0)  -->
<svg version="1.1" id="Layer_1" xmlns="http://www.w3.org/2000/svg" xmlns:xlink="http://www.w3.org/1999/xlink" x="0px" y="0px"
	 viewBox="-796 1288 432 432" style="enable-background:new -796 1288 432 432;" xml:space="preserve">
<style type="text/css">
	.social-media-icon-svg{
    fill: #FFFFFF;
    stroke-width: 25px;
    stroke-linejoin: round;
    stroke: transparent;
  }
</style>
<path id="social-media-icon-linkedin" class="social-media-icon-svg buttonEl" d="M-674.3,1679.3c0,7.1-5.7,12.7-12.7,12.7h-54c-7.1,0-12.7-5.7-12.7-12.7
	v-226.4c0-7.1,5.7-12.7,12.7-12.7h54c7.1,0,12.7,5.7,12.7,12.7V1679.3z M-714,1418.7c-28.4,0-51.4-23-51.4-51.4s23-51.4,51.4-51.4
	s51.4,23,51.4,51.4S-685.6,1418.7-714,1418.7z M-391.9,1680.4c0,6.4-5.2,11.6-11.6,11.6h-57.9c-6.4,0-11.6-5.2-11.6-11.6v-106.3
	c0-15.9,4.7-69.4-41.4-69.4c-35.7,0-43,36.7-44.4,53.1v122.6c0,6.4-5.2,11.6-11.6,11.6h-56c-6.4,0-11.6-5.2-11.6-11.6v-228.6
	c0-6.4,5.2-11.6,11.6-11.6h56c6.4,0,11.6,5.2,11.6,11.6v19.8c13.3-19.9,32.9-35.2,74.8-35.2c92.9,0,92.3,86.7,92.3,134.4
	L-391.9,1680.4L-391.9,1680.4z"/>
</svg>
