<?xml version="1.0" encoding="utf-8"?>
<!-- Generator: Adobe Illustrator 19.0.0, SVG Export Plug-In . SVG Version: 6.00 Build 0)  -->
<svg version="1.1" id="Layer_1" xmlns="http://www.w3.org/2000/svg" xmlns:xlink="http://www.w3.org/1999/xlink" x="0px" y="0px"
	 viewBox="-227.5 341.5 49.7 102.5" style="enable-background:new -227.5 341.5 49.7 102.5;" xml:space="preserve">
<style type="text/css">
	.st0{fill:#DDDDDD;}
	.st1{fill:#842B90;}
	.st2{opacity:0.3;fill:#CCCCCC;enable-background:new    ;}
</style>
<g>
	<g>
		<path id="XMLID_7_" class="st0" d="M-188.9,437.8v-43.5h11.1v43.6c0,3.1-2.5,5.6-5.6,5.6l0,0
			C-186.4,443.4-188.9,440.9-188.9,437.8z"/>
		<path id="XMLID_6_" class="st0" d="M-201.7,413.8v-19.5h11.1v19.5c0,3.1-2.5,5.6-5.6,5.6l0,0
			C-199.2,419.4-201.7,416.9-201.7,413.8z"/>
		<path id="XMLID_5_" class="st0" d="M-214.5,413.8v-19.5h11.1v19.5c0,3.1-2.5,5.6-5.6,5.6l0,0C-212,419.4-214.5,416.9-214.5,413.8z
			"/>
		<path id="XMLID_4_" class="st0" d="M-227.4,413.8v-19.5h11.1v19.5c0,3.1-2.5,5.6-5.6,5.6l0,0
			C-224.8,419.4-227.4,416.9-227.4,413.8z"/>
		<path id="XMLID_3_" class="st1" d="M-179.4,436.8c0-2.1-1.7-3.8-3.8-3.8c-2.1,0-3.8,1.7-3.8,3.8v7.2h7.7L-179.4,436.8
			L-179.4,436.8z"/>
	</g>
	<path class="st2" d="M-194.4,354.1v-12.6H-211v12.6c-9.6,3.4-16.5,12.6-16.5,23.4v16.8h49.6v-16.8
		C-177.9,366.6-184.8,357.5-194.4,354.1z"/>
</g>
</svg>
