<?xml version="1.0" encoding="utf-8"?>
<!-- Generator: Adobe Illustrator 19.0.0, SVG Export Plug-In . SVG Version: 6.00 Build 0)  -->
<svg version="1.1" id="Capa_1" xmlns="http://www.w3.org/2000/svg" xmlns:xlink="http://www.w3.org/1999/xlink" x="0px" y="0px"
	 viewBox="-703 1245 512 512" style="enable-background:new -703 1245 512 512;" xml:space="preserve">
<style type="text/css">
	.social-media-icon-svg{
    fill: #FFFFFF;
    stroke-width: 25px;
    stroke-linejoin: round;
    stroke: transparent;
  }
</style>
<g>
	<g>
		<path id="social-media-icon-twitter" class="social-media-icon-svg buttonEl" d="M-201,1369.1c-17.8,7.9-36.8,13-56.7,15.6c20.4-12.2,36-31.3,43.3-54.4c-19,11.3-40,19.3-62.4,23.8
			c-18.1-19.2-43.8-31.1-71.9-31.1c-54.5,0-98.3,44.3-98.3,98.4c0,7.8,0.7,15.3,2.3,22.4c-81.8-4-154.2-43.2-202.9-102.9
			c-8.5,14.7-13.5,31.6-13.5,49.8c0,34.1,17.5,64.3,43.7,81.8c-15.8-0.3-31.3-4.9-44.4-12.1c0,0.3,0,0.7,0,1.1
			c0,47.8,34.1,87.6,78.8,96.7c-8,2.2-16.8,3.3-25.8,3.3c-6.3,0-12.7-0.4-18.7-1.7c12.8,39,48.9,67.6,92,68.5
			c-33.5,26.2-76,42-122,42c-8.1,0-15.8-0.4-23.5-1.3c43.5,28,95.2,44,150.9,44c181.1,0,280.1-150,280.1-280c0-4.3-0.2-8.5-0.4-12.8
			C-230.8,1406.4-214.4,1389-201,1369.1z"/>
	</g>
</g>
</svg>
